<mxfile host="Electron" agent="Mozilla/5.0 (Windows NT 10.0; Win64; x64) AppleWebKit/537.36 (KHTML, like Gecko) draw.io/27.0.9 Chrome/134.0.6998.205 Electron/35.4.0 Safari/537.36" version="27.0.9">
  <diagram name="Page-1" id="wh1ZHQTUyQjFVehHirpH">
    <mxGraphModel dx="1661" dy="973" grid="1" gridSize="10" guides="1" tooltips="1" connect="1" arrows="1" fold="1" page="1" pageScale="1" pageWidth="827" pageHeight="1169" math="0" shadow="0">
      <root>
        <mxCell id="0" />
        <mxCell id="1" parent="0" />
        <mxCell id="jVJAtKLM6IIFhNEzY9in-26" style="edgeStyle=orthogonalEdgeStyle;rounded=1;orthogonalLoop=1;jettySize=auto;html=1;entryX=0;entryY=0.5;entryDx=0;entryDy=0;" edge="1" parent="1" source="jVJAtKLM6IIFhNEzY9in-2" target="jVJAtKLM6IIFhNEzY9in-31">
          <mxGeometry relative="1" as="geometry">
            <mxPoint x="358.5" y="175" as="targetPoint" />
            <Array as="points">
              <mxPoint x="250" y="90" />
              <mxPoint x="250" y="165" />
            </Array>
          </mxGeometry>
        </mxCell>
        <mxCell id="jVJAtKLM6IIFhNEzY9in-27" style="edgeStyle=orthogonalEdgeStyle;rounded=1;orthogonalLoop=1;jettySize=auto;html=1;entryX=0;entryY=0.5;entryDx=0;entryDy=0;" edge="1" parent="1" source="jVJAtKLM6IIFhNEzY9in-2" target="jVJAtKLM6IIFhNEzY9in-34">
          <mxGeometry relative="1" as="geometry">
            <mxPoint x="358" y="255" as="targetPoint" />
            <Array as="points">
              <mxPoint x="209" y="110" />
              <mxPoint x="209" y="255" />
            </Array>
          </mxGeometry>
        </mxCell>
        <mxCell id="jVJAtKLM6IIFhNEzY9in-33" style="edgeStyle=orthogonalEdgeStyle;rounded=1;orthogonalLoop=1;jettySize=auto;html=1;entryX=0;entryY=0.5;entryDx=0;entryDy=0;" edge="1" parent="1" source="jVJAtKLM6IIFhNEzY9in-2" target="jVJAtKLM6IIFhNEzY9in-32">
          <mxGeometry relative="1" as="geometry" />
        </mxCell>
        <mxCell id="jVJAtKLM6IIFhNEzY9in-2" value="Visiteur" style="shape=umlActor;verticalLabelPosition=bottom;verticalAlign=top;html=1;rounded=1;" vertex="1" parent="1">
          <mxGeometry x="30" y="50" width="30" height="60" as="geometry" />
        </mxCell>
        <mxCell id="jVJAtKLM6IIFhNEzY9in-41" style="edgeStyle=orthogonalEdgeStyle;rounded=1;orthogonalLoop=1;jettySize=auto;html=1;entryX=1;entryY=0.5;entryDx=0;entryDy=0;" edge="1" parent="1" source="jVJAtKLM6IIFhNEzY9in-3" target="jVJAtKLM6IIFhNEzY9in-32">
          <mxGeometry relative="1" as="geometry" />
        </mxCell>
        <mxCell id="jVJAtKLM6IIFhNEzY9in-42" style="edgeStyle=orthogonalEdgeStyle;rounded=1;orthogonalLoop=1;jettySize=auto;html=1;entryX=1;entryY=0.5;entryDx=0;entryDy=0;" edge="1" parent="1" source="jVJAtKLM6IIFhNEzY9in-3" target="jVJAtKLM6IIFhNEzY9in-31">
          <mxGeometry relative="1" as="geometry" />
        </mxCell>
        <mxCell id="jVJAtKLM6IIFhNEzY9in-43" style="edgeStyle=orthogonalEdgeStyle;rounded=1;orthogonalLoop=1;jettySize=auto;html=1;entryX=1;entryY=0.5;entryDx=0;entryDy=0;" edge="1" parent="1" source="jVJAtKLM6IIFhNEzY9in-3" target="jVJAtKLM6IIFhNEzY9in-34">
          <mxGeometry relative="1" as="geometry" />
        </mxCell>
        <mxCell id="jVJAtKLM6IIFhNEzY9in-44" style="edgeStyle=orthogonalEdgeStyle;rounded=1;orthogonalLoop=1;jettySize=auto;html=1;exitX=0.25;exitY=0.1;exitDx=0;exitDy=0;exitPerimeter=0;entryX=1;entryY=0.5;entryDx=0;entryDy=0;" edge="1" parent="1" source="jVJAtKLM6IIFhNEzY9in-3" target="jVJAtKLM6IIFhNEzY9in-35">
          <mxGeometry relative="1" as="geometry">
            <Array as="points">
              <mxPoint x="757" y="370" />
              <mxPoint x="620" y="370" />
              <mxPoint x="620" y="345" />
            </Array>
          </mxGeometry>
        </mxCell>
        <mxCell id="jVJAtKLM6IIFhNEzY9in-45" style="edgeStyle=orthogonalEdgeStyle;rounded=1;orthogonalLoop=1;jettySize=auto;html=1;entryX=1;entryY=0.5;entryDx=0;entryDy=0;" edge="1" parent="1" source="jVJAtKLM6IIFhNEzY9in-3" target="jVJAtKLM6IIFhNEzY9in-36">
          <mxGeometry relative="1" as="geometry" />
        </mxCell>
        <mxCell id="jVJAtKLM6IIFhNEzY9in-46" style="edgeStyle=orthogonalEdgeStyle;rounded=1;orthogonalLoop=1;jettySize=auto;html=1;entryX=1;entryY=0.5;entryDx=0;entryDy=0;" edge="1" parent="1" source="jVJAtKLM6IIFhNEzY9in-3" target="jVJAtKLM6IIFhNEzY9in-37">
          <mxGeometry relative="1" as="geometry" />
        </mxCell>
        <mxCell id="jVJAtKLM6IIFhNEzY9in-47" style="edgeStyle=orthogonalEdgeStyle;rounded=1;orthogonalLoop=1;jettySize=auto;html=1;entryX=1;entryY=0.5;entryDx=0;entryDy=0;" edge="1" parent="1" source="jVJAtKLM6IIFhNEzY9in-3" target="jVJAtKLM6IIFhNEzY9in-38">
          <mxGeometry relative="1" as="geometry" />
        </mxCell>
        <mxCell id="jVJAtKLM6IIFhNEzY9in-48" style="edgeStyle=orthogonalEdgeStyle;rounded=1;orthogonalLoop=1;jettySize=auto;html=1;entryX=1;entryY=0.5;entryDx=0;entryDy=0;" edge="1" parent="1" source="jVJAtKLM6IIFhNEzY9in-3" target="jVJAtKLM6IIFhNEzY9in-39">
          <mxGeometry relative="1" as="geometry" />
        </mxCell>
        <mxCell id="jVJAtKLM6IIFhNEzY9in-3" value="Utilisateur" style="shape=umlActor;verticalLabelPosition=bottom;verticalAlign=top;html=1;rounded=1;" vertex="1" parent="1">
          <mxGeometry x="750" y="340" width="30" height="60" as="geometry" />
        </mxCell>
        <mxCell id="jVJAtKLM6IIFhNEzY9in-31" value="Participer covoiturage" style="ellipse;whiteSpace=wrap;html=1;rounded=1;" vertex="1" parent="1">
          <mxGeometry x="350" y="130" width="140" height="70" as="geometry" />
        </mxCell>
        <mxCell id="jVJAtKLM6IIFhNEzY9in-32" value="Recherche itinéraire" style="ellipse;whiteSpace=wrap;html=1;rounded=1;" vertex="1" parent="1">
          <mxGeometry x="350" y="40" width="140" height="70" as="geometry" />
        </mxCell>
        <mxCell id="jVJAtKLM6IIFhNEzY9in-34" value="Connecter / créer un compte" style="ellipse;whiteSpace=wrap;html=1;rounded=1;" vertex="1" parent="1">
          <mxGeometry x="350" y="220" width="140" height="70" as="geometry" />
        </mxCell>
        <mxCell id="jVJAtKLM6IIFhNEzY9in-35" value="Espace Utilisateur" style="ellipse;whiteSpace=wrap;html=1;rounded=1;" vertex="1" parent="1">
          <mxGeometry x="350" y="310" width="140" height="70" as="geometry" />
        </mxCell>
        <mxCell id="jVJAtKLM6IIFhNEzY9in-36" value="Saisir Voyage" style="ellipse;whiteSpace=wrap;html=1;rounded=1;" vertex="1" parent="1">
          <mxGeometry x="350" y="400" width="140" height="70" as="geometry" />
        </mxCell>
        <mxCell id="jVJAtKLM6IIFhNEzY9in-37" value="Consulter Historique" style="ellipse;whiteSpace=wrap;html=1;rounded=1;" vertex="1" parent="1">
          <mxGeometry x="350" y="490" width="140" height="70" as="geometry" />
        </mxCell>
        <mxCell id="jVJAtKLM6IIFhNEzY9in-38" value="Démarrer / arrêter covoiturage" style="ellipse;whiteSpace=wrap;html=1;rounded=1;" vertex="1" parent="1">
          <mxGeometry x="350" y="580" width="140" height="70" as="geometry" />
        </mxCell>
        <mxCell id="jVJAtKLM6IIFhNEzY9in-39" value="Laisser un Avis / Note / Commentaire" style="ellipse;whiteSpace=wrap;html=1;rounded=1;" vertex="1" parent="1">
          <mxGeometry x="350" y="670" width="140" height="70" as="geometry" />
        </mxCell>
        <mxCell id="jVJAtKLM6IIFhNEzY9in-49" value="Chauffeur" style="text;html=1;align=center;verticalAlign=middle;whiteSpace=wrap;rounded=0;" vertex="1" parent="1">
          <mxGeometry x="510" y="590" width="60" height="30" as="geometry" />
        </mxCell>
        <mxCell id="jVJAtKLM6IIFhNEzY9in-50" value="Passager" style="text;html=1;align=center;verticalAlign=middle;whiteSpace=wrap;rounded=0;" vertex="1" parent="1">
          <mxGeometry x="510" y="680" width="60" height="30" as="geometry" />
        </mxCell>
        <mxCell id="jVJAtKLM6IIFhNEzY9in-51" value="Chauffeur" style="text;html=1;align=center;verticalAlign=middle;whiteSpace=wrap;rounded=0;" vertex="1" parent="1">
          <mxGeometry x="510" y="410" width="60" height="30" as="geometry" />
        </mxCell>
        <mxCell id="jVJAtKLM6IIFhNEzY9in-56" style="edgeStyle=orthogonalEdgeStyle;rounded=1;orthogonalLoop=1;jettySize=auto;html=1;entryX=0;entryY=0.5;entryDx=0;entryDy=0;" edge="1" parent="1" source="jVJAtKLM6IIFhNEzY9in-52" target="jVJAtKLM6IIFhNEzY9in-53">
          <mxGeometry relative="1" as="geometry" />
        </mxCell>
        <mxCell id="jVJAtKLM6IIFhNEzY9in-57" style="edgeStyle=orthogonalEdgeStyle;rounded=1;orthogonalLoop=1;jettySize=auto;html=1;entryX=0;entryY=0.5;entryDx=0;entryDy=0;" edge="1" parent="1" source="jVJAtKLM6IIFhNEzY9in-52" target="jVJAtKLM6IIFhNEzY9in-54">
          <mxGeometry relative="1" as="geometry" />
        </mxCell>
        <mxCell id="jVJAtKLM6IIFhNEzY9in-58" style="edgeStyle=orthogonalEdgeStyle;rounded=1;orthogonalLoop=1;jettySize=auto;html=1;entryX=0;entryY=0.5;entryDx=0;entryDy=0;" edge="1" parent="1" source="jVJAtKLM6IIFhNEzY9in-52" target="jVJAtKLM6IIFhNEzY9in-55">
          <mxGeometry relative="1" as="geometry" />
        </mxCell>
        <mxCell id="jVJAtKLM6IIFhNEzY9in-52" value="Employe" style="shape=umlActor;verticalLabelPosition=bottom;verticalAlign=top;html=1;rounded=1;" vertex="1" parent="1">
          <mxGeometry x="930" y="190" width="30" height="60" as="geometry" />
        </mxCell>
        <mxCell id="jVJAtKLM6IIFhNEzY9in-53" value="Connexion" style="ellipse;whiteSpace=wrap;html=1;rounded=1;" vertex="1" parent="1">
          <mxGeometry x="1160" y="60" width="140" height="70" as="geometry" />
        </mxCell>
        <mxCell id="jVJAtKLM6IIFhNEzY9in-54" value="Valider / Supprimer avis" style="ellipse;whiteSpace=wrap;html=1;rounded=1;" vertex="1" parent="1">
          <mxGeometry x="1160" y="190" width="140" height="70" as="geometry" />
        </mxCell>
        <mxCell id="jVJAtKLM6IIFhNEzY9in-55" value="Vision covoiturage négatif" style="ellipse;whiteSpace=wrap;html=1;rounded=1;" vertex="1" parent="1">
          <mxGeometry x="1160" y="320" width="140" height="70" as="geometry" />
        </mxCell>
        <mxCell id="jVJAtKLM6IIFhNEzY9in-60" style="edgeStyle=orthogonalEdgeStyle;rounded=1;orthogonalLoop=1;jettySize=auto;html=1;entryX=1;entryY=0.5;entryDx=0;entryDy=0;" edge="1" parent="1" source="jVJAtKLM6IIFhNEzY9in-59" target="jVJAtKLM6IIFhNEzY9in-53">
          <mxGeometry relative="1" as="geometry" />
        </mxCell>
        <mxCell id="jVJAtKLM6IIFhNEzY9in-62" style="edgeStyle=orthogonalEdgeStyle;rounded=1;orthogonalLoop=1;jettySize=auto;html=1;entryX=1;entryY=0.5;entryDx=0;entryDy=0;" edge="1" parent="1" source="jVJAtKLM6IIFhNEzY9in-59" target="jVJAtKLM6IIFhNEzY9in-61">
          <mxGeometry relative="1" as="geometry" />
        </mxCell>
        <mxCell id="jVJAtKLM6IIFhNEzY9in-64" style="edgeStyle=orthogonalEdgeStyle;rounded=1;orthogonalLoop=1;jettySize=auto;html=1;entryX=1;entryY=0.5;entryDx=0;entryDy=0;" edge="1" parent="1" source="jVJAtKLM6IIFhNEzY9in-59" target="jVJAtKLM6IIFhNEzY9in-63">
          <mxGeometry relative="1" as="geometry" />
        </mxCell>
        <mxCell id="jVJAtKLM6IIFhNEzY9in-66" style="edgeStyle=orthogonalEdgeStyle;rounded=1;orthogonalLoop=1;jettySize=auto;html=1;entryX=1;entryY=0.5;entryDx=0;entryDy=0;" edge="1" parent="1" source="jVJAtKLM6IIFhNEzY9in-59" target="jVJAtKLM6IIFhNEzY9in-65">
          <mxGeometry relative="1" as="geometry" />
        </mxCell>
        <mxCell id="jVJAtKLM6IIFhNEzY9in-68" style="edgeStyle=orthogonalEdgeStyle;rounded=1;orthogonalLoop=1;jettySize=auto;html=1;entryX=1;entryY=0.5;entryDx=0;entryDy=0;" edge="1" parent="1" source="jVJAtKLM6IIFhNEzY9in-59" target="jVJAtKLM6IIFhNEzY9in-67">
          <mxGeometry relative="1" as="geometry" />
        </mxCell>
        <mxCell id="jVJAtKLM6IIFhNEzY9in-59" value="Administrateur" style="shape=umlActor;verticalLabelPosition=bottom;verticalAlign=top;html=1;rounded=1;" vertex="1" parent="1">
          <mxGeometry x="1580" y="190" width="30" height="60" as="geometry" />
        </mxCell>
        <mxCell id="jVJAtKLM6IIFhNEzY9in-61" value="Créer compte employé" style="ellipse;whiteSpace=wrap;html=1;rounded=1;" vertex="1" parent="1">
          <mxGeometry x="1160" y="450" width="140" height="70" as="geometry" />
        </mxCell>
        <mxCell id="jVJAtKLM6IIFhNEzY9in-63" value="Graphique covoiturage par jour" style="ellipse;whiteSpace=wrap;html=1;rounded=1;" vertex="1" parent="1">
          <mxGeometry x="1160" y="580" width="140" height="70" as="geometry" />
        </mxCell>
        <mxCell id="jVJAtKLM6IIFhNEzY9in-65" value="Graphique recette crédits par jour et total" style="ellipse;whiteSpace=wrap;html=1;rounded=1;" vertex="1" parent="1">
          <mxGeometry x="1160" y="710" width="140" height="70" as="geometry" />
        </mxCell>
        <mxCell id="jVJAtKLM6IIFhNEzY9in-67" value="Suspendre tout compte" style="ellipse;whiteSpace=wrap;html=1;rounded=1;" vertex="1" parent="1">
          <mxGeometry x="1160" y="840" width="140" height="70" as="geometry" />
        </mxCell>
      </root>
    </mxGraphModel>
  </diagram>
</mxfile>
